<svg xmlns="http://www.w3.org/2000/svg" viewBox="0 0 100 25"><defs><style>.cls-1{fill:#414042;}</style></defs><title>Asset 1</title><g id="Layer_2" data-name="Layer 2"><g id="Layer_1-2" data-name="Layer 1"><path class="cls-1" d="M0,.41H7.6V18.63H19.47v6H0Z"/><path class="cls-1" d="M20,12.52Q20,6.6,23.36,3.3T32.71,0q6.13,0,9.46,3.24t3.32,9.08a14.65,14.65,0,0,1-1.45,7,10.2,10.2,0,0,1-4.19,4.22A14,14,0,0,1,33,25a16,16,0,0,1-6.89-1.3,10.31,10.31,0,0,1-4.42-4.13A13.48,13.48,0,0,1,20,12.52Zm7.61,0q0,3.66,1.38,5.26a4.71,4.71,0,0,0,3.77,1.6,4.71,4.71,0,0,0,3.79-1.57c.89-1,1.34-2.92,1.34-5.62q0-3.42-1.4-5a4.82,4.82,0,0,0-3.8-1.57A4.64,4.64,0,0,0,29,7.26C28.07,8.32,27.61,10.09,27.61,12.55Z"/><path class="cls-1" d="M60.58,15.83v-5H72.33V21.11a24.26,24.26,0,0,1-6,3.07,20.4,20.4,0,0,1-6.15.82,15.15,15.15,0,0,1-7.14-1.47,10.1,10.1,0,0,1-4.28-4.37,14.16,14.16,0,0,1-1.52-6.66,13.67,13.67,0,0,1,1.67-6.88A10.58,10.58,0,0,1,53.8,1.17,16.1,16.1,0,0,1,60.53,0a19,19,0,0,1,6.1.73A7.87,7.87,0,0,1,70,3a9.88,9.88,0,0,1,2,3.86L64.66,8.13A3.85,3.85,0,0,0,63.12,6a4.8,4.8,0,0,0-2.76-.73,5,5,0,0,0-4,1.71c-1,1.13-1.49,2.94-1.49,5.4q0,3.92,1.5,5.6a5.32,5.32,0,0,0,4.19,1.69A7.82,7.82,0,0,0,63,19.34a13.18,13.18,0,0,0,2.66-1.23V15.83Z"/><path class="cls-1" d="M74.51,12.52q0-5.92,3.36-9.22T87.21,0q6.15,0,9.47,3.24T100,12.32a14.65,14.65,0,0,1-1.45,7,10.23,10.23,0,0,1-4.2,4.22A14,14,0,0,1,87.52,25a15.92,15.92,0,0,1-6.89-1.3,10.31,10.31,0,0,1-4.42-4.13A13.48,13.48,0,0,1,74.51,12.52Zm7.6,0q0,3.66,1.39,5.26a5.3,5.3,0,0,0,7.56,0c.89-1,1.34-2.92,1.34-5.62q0-3.42-1.4-5a4.83,4.83,0,0,0-3.8-1.57,4.62,4.62,0,0,0-3.69,1.6C82.58,8.32,82.11,10.09,82.11,12.55Z"/></g></g></svg>