<?xml version="1.0" encoding="UTF-8"?>
<!DOCTYPE svg PUBLIC "-//W3C//DTD SVG 1.1//EN" "http://www.w3.org/Graphics/SVG/1.1/DTD/svg11.dtd">
<!-- Creator: CorelDRAW -->
<svg xmlns="http://www.w3.org/2000/svg" xml:space="preserve" width="503px" height="89px" style="shape-rendering:geometricPrecision; text-rendering:geometricPrecision; image-rendering:optimizeQuality; fill-rule:evenodd; clip-rule:evenodd"
viewBox="0 0 502.999 88.8162"
 xmlns:xlink="http://www.w3.org/1999/xlink">
 <defs>
  <style type="text/css">
   <![CDATA[
    .str0 {stroke:#3E4095;stroke-width:0.0413335}
    .str1 {stroke:#FEFEFE;stroke-width:0.207848}
    .fil0 {fill:#FEFEFE}
    .fil1 {fill:#EF4B37}
   ]]>
  </style>
 </defs>
 <g id="Layer_x0020_1">
  <metadata id="CorelCorpID_0Corel-Layer"/>
  <polygon class="fil0 str0" points="7.46955,1.50336 37.8898,1.50336 35.8987,8.43911 24.8414,8.43911 7.24162,73.5665 0.027162,73.6929 17.6612,8.43911 5.47846,8.43911 "/>
  <polygon class="fil0 str0" points="36.9722,16.0067 31.7264,35.4181 40.9249,35.3649 46.1565,16.0067 53.3367,16.0067 41.0193,61.5869 33.8049,61.7132 39.0507,42.3007 29.8522,42.3538 24.6548,61.5869 17.4404,61.7132 29.792,16.0067 "/>
  <polygon class="fil0 str0" points="48.555,61.7132 65.9788,61.6129 67.9676,54.6771 54.4031,54.755 57.7582,42.3408 67.6558,42.2782 69.6445,35.3425 59.6324,35.4063 62.9792,23.0216 76.6771,22.9424 78.6659,16.0067 64.8534,16.0858 64.8747,16.0067 57.6944,16.0067 45.3428,61.7132 48.5704,61.6565 "/>
  <path class="fil0 str0" d="M146.146 11.1718c-2.58748,1.1904 -5.17495,2.38199 -7.76243,3.57357 -6.73027,-11.2746 -23.5494,-5.26588 -33.1483,17.2349 -6.49998,17.9246 -4.06603,31.4914 3.17559,34.3103 5.5375,2.15525 11.9359,0.0248001 17.3849,-5.72528 1.88835,1.82103 3.35628,4.06249 5.24463,5.88471 -5.32847,6.57084 -15.3737,10.9581 -24.6288,8.46628 -8.22064,-2.21311 -19.037,-13.9069 -10.827,-42.0952 6.67122,-18.7878 21.3045,-33.2711 35.0366,-32.7893 6.83892,-0.28343 13.3755,4.69194 15.5249,11.14z"/>
  <path class="fil0 str0" d="M174.389 16.0067l-5.24581 19.4114 -3.28424 12.3658c-3.6338,14.3226 -13.2184,15.1965 -17.1546,15.2296 -9.32601,0.0779431 -14.5801,-6.9641 -11.6797,-17.2738l7.94547 -29.7329 7.18021 0 -7.84037 30.223c-2.64062,9.24216 2.18831,9.7606 4.85727,9.82674 2.54496,0.0625907 7.68684,-1.73837 9.98144,-9.62361l8.06003 -30.4262 7.18021 0z"/>
  <path class="fil0 str0" d="M167.425 62.7041l12.4213 -46.5509 7.19675 -0.0968384c4.54314,-0.0614097 8.85717,-0.17242 12.4248,3.28778 2.89098,2.80477 4.68603,7.6774 3.42359,13.5007 -1.64743,8.36471 -8.80993,13.4287 -13.1677,14.5919l3.71883 15.2674 -7.40814 0 -3.22873 -14.4148 -4.21247 0.0153524 -3.76016 14.3994 -7.40814 0zm17.7143 -39.301l-4.87617 18.8209c6.69838,-0.184229 13.1204,-2.80359 15.3583,-10.2531 1.51871,-7.78014 -3.24173,-9.10163 -10.4822,-8.56784z"/>
  <polygon class="fil0 str0" points="248.715,62.7041 261.282,16.7353 268.462,16.7353 256.123,62.7041 "/>
  <path class="fil0 str0" d="M217.022 62.7041c-2.75517,-19.9015 15.0702,-43.0671 37.7752,-45.8235l-0.276344 0.312953 0.857374 -0.458211 -12.3386 45.9687 -7.40814 0 2.04069 -7.46601 -13.3354 -0.101562c-0.217296,2.45639 -0.175962,4.98009 0.0932955,7.56757l-7.40814 0zm22.5929 -14.5718l5.69103 -20.8179c-10.8884,5.79259 -16.9668,12.8665 -19.5696,20.8616l13.8786 -0.0436954z"/>
  <path class="fil0 str0" d="M262.186 62.7041l12.5666 -45.9687c6.18349,0.139353 13.8349,4.81122 17.9742,12.5914l3.44249 -12.5914 7.18021 0 -12.3386 45.9687 -7.40814 0 5.0167 -18.3497c0.792422,-9.56693 -3.51571,-16.6704 -9.15595,-18.417l-9.86925 36.7667 -7.40814 0z"/>
  <polygon class="fil0 str0" points="228.171,16.0327 207.704,16.2724 205.845,23.2082 212.48,23.2011 201.537,62.7041 208.945,62.7041 219.687,23.194 226.255,23.1881 "/>
  <polygon class="fil0 str0" points="358.754,16.0067 353.509,35.4181 362.707,35.3649 367.939,16.0067 375.119,16.0067 362.802,61.5869 355.587,61.7132 360.833,42.3007 351.634,42.3538 346.437,61.5869 339.223,61.7132 351.574,16.0067 "/>
  <polygon class="fil0 str0" points="472.861,61.7132 490.285,61.6129 492.273,54.6771 478.709,54.755 482.064,42.3408 491.962,42.2782 493.95,35.3425 483.938,35.4063 487.285,23.0216 500.983,22.9424 502.972,16.0067 489.159,16.0858 489.18,16.0067 482,16.0067 469.649,61.7132 472.876,61.6565 "/>
  <path class="fil0 str1" d="M319.473 66.5126l-13.8007 0.218477 -1.85883 6.93576 6.63461 -0.00708574 1.85292 -0.00708574 6.5673 -0.00590478 0.0720383 -0.268077 0.0838479 -0.00944765 -0.0129905 0.121639c7.66913,-0.188953 17.3542,-7.84982 16.159,-16.6727l-6.36299 -37.1647c-0.139353,-6.55785 3.29251,-10.2531 10.2956,-11.0904 3.96565,-0.00472383 7.93366,-0.0141715 11.8993,-0.0177143l1.91669 -7.15541 -15.1127 0.239734c-6.26261,1.19158 -11.1116,4.7132 -14.0309,9.88106 -2.82839,5.00371 -1.35692,8.53241 -0.458211,13.9932l1.36755 8.29622 3.76489 22.8527c-0.0200763,5.80676 -3.5346,8.49108 -6.78577,9.57992l0 -0.00708574 -2.19067 0.286972z"/>
  <path class="fil0 str0" d="M394.679 16.8286c10.1893,-0.0885717 14.2187,9.81729 11.5214,22.0933 -2.69849,12.2808 -11.2994,22.3165 -21.3139,22.4027 -10.0051,0.0909336 -14.2282,-9.81493 -11.5261,-22.091 2.70085,-12.2879 11.1116,-22.3165 21.3186,-22.4051zm0.327125 6.47636c5.24817,0.571583 5.84101,8.07538 3.32557,16.6798 -2.51544,8.60445 -8.23127,15.6111 -13.3814,15.0501 -5.15015,-0.560954 -6.78577,-7.88525 -4.27034,-16.4897 2.51544,-8.60327 9.07919,-15.8118 14.3262,-15.2402z"/>
  <path class="fil0 str0" d="M428.718 16.6527c6.91332,0.0590478 15.4516,5.50798 12.5725,17.7002 -3.88417,11.1293 -12.6126,14.2978 -23.7207,13.8255l-3.89952 14.5258 -7.40814 0 12.5666 -45.9687 9.88933 -0.0826669zm-9.35199 24.832c8.3529,0.0708574 14.325,-3.75308 15.8012,-10.3027 0.557411,-5.11945 -1.75962,-8.17812 -5.85991,-8.14387l-5.00253 0.0436954 -4.93876 18.4028z"/>
  <path class="fil0 str0" d="M461.041 16.6527c6.91332,0.0590478 15.4516,5.50798 12.5725,17.7002 -3.88417,11.1293 -12.6126,14.2978 -23.7207,13.8255l-3.89952 14.5258 -7.40814 0 12.5666 -45.9687 9.88933 -0.0826669zm-9.35199 24.832c8.3529,0.0708574 14.325,-3.75308 15.8012,-10.3027 0.557411,-5.11945 -1.75962,-8.17812 -5.85991,-8.14387l-5.00253 0.0436954 -4.93876 18.4028z"/>
  <rect class="fil1" x="0.054324" y="83.4168" width="466.142" height="5.39815"/>
  <rect class="fil1" x="474.596" y="83.4168" width="7.96319" height="5.39815"/>
  <rect class="fil1" x="487.422" y="83.4168" width="7.96319" height="5.39815"/>
 </g>
</svg>
