<svg xmlns="http://www.w3.org/2000/svg" width="11.187" height="20.395" viewBox="0 0 11.187 20.395"><g transform="translate(-113.692)"><g transform="translate(113.692)"><path d="M122.749,0h-6.89a2.165,2.165,0,0,0-2.167,2.126V18.272a2.145,2.145,0,0,0,2.146,2.124l6.9-.007a2.131,2.131,0,0,0,2.129-2.124l.01-16.139A2.127,2.127,0,0,0,122.749,0Zm-4.44,1.275h2a.319.319,0,1,1,0,.637h-2a.319.319,0,1,1,0-.637Zm-1.2.1a.33.33,0,0,1,.451,0,.319.319,0,0,1-.225.545.326.326,0,0,1-.226-.094.321.321,0,0,1,0-.451Zm2.136,18.388a.954.954,0,1,1,.954-.954A.955.955,0,0,1,119.244,19.764Zm4.646-2.555h-9.082V3.028h9.082Z" transform="translate(-113.692)" fill="#b98225"/></g></g></svg>