<?xml version="1.0" encoding="UTF-8"?>
<!DOCTYPE svg PUBLIC "-//W3C//DTD SVG 1.1//EN" "http://www.w3.org/Graphics/SVG/1.1/DTD/svg11.dtd">
<!-- Creator: CorelDRAW -->
<svg xmlns="http://www.w3.org/2000/svg" xml:space="preserve" width="25px" height="45px" style="shape-rendering:geometricPrecision; text-rendering:geometricPrecision; image-rendering:optimizeQuality; fill-rule:evenodd; clip-rule:evenodd"
viewBox="0 0 1.42959 2.57335"
 xmlns:xlink="http://www.w3.org/1999/xlink">
 <defs>
  <style type="text/css">
   <![CDATA[
    .fil0 {fill:#FEFEFE;fill-rule:nonzero}
   ]]>
  </style>
 </defs>
 <g id="Layer_x0020_1">
  <metadata id="CorelCorpID_0Corel-Layer"/>
  <polygon class="fil0" points="0.22586,0.0840898 1.27735,1.20799 1.35091,1.28668 1.27735,1.36536 0.22586,2.48926 0.0786864,2.33196 1.05656,1.28668 0.0786864,0.241395 "/>
  <path class="fil0" d="M0.22586 0.168112l1.01603 1.08614 0.0303939 0.0324202 -0.0303939 0.0323526 -1.01603 1.08614 -0.0685551 -0.0732155 0.934714 -0.999081 0.0432269 -0.0461987 -0.0432269 -0.0462663 -0.934714 -0.999014 0.0685551 -0.0732831zm1.08689 0.993678l-1.05149 -1.12397 -0.035392 -0.0378235 -0.035392 0.0378235 -0.147242 0.157305 -0.0432944 0.0462663 0.0432944 0.0461987 0.934714 0.999081 -0.934714 0.999081 -0.0432944 0.0462663 0.0432944 0.0461987 0.147242 0.157305 0.035392 0.0378235 0.035392 -0.0378235 1.05149 -1.12397 0.0736208 -0.0786864 0.0432944 -0.0461987 -0.0432944 -0.0462663 -0.0736208 -0.0786189z"/>
 </g>
</svg>
