<?xml version="1.0" encoding="UTF-8"?>
<!DOCTYPE svg PUBLIC "-//W3C//DTD SVG 1.1//EN" "http://www.w3.org/Graphics/SVG/1.1/DTD/svg11.dtd">
<!-- Creator: CorelDRAW -->
<svg xmlns="http://www.w3.org/2000/svg" xml:space="preserve" width="25px" height="45px" style="shape-rendering:geometricPrecision; text-rendering:geometricPrecision; image-rendering:optimizeQuality; fill-rule:evenodd; clip-rule:evenodd"
viewBox="0 0 1.06736 1.9213"
 xmlns:xlink="http://www.w3.org/1999/xlink">
 <defs>
  <style type="text/css">
   <![CDATA[
    .fil0 {fill:#FEFEFE;fill-rule:nonzero}
   ]]>
  </style>
 </defs>
 <g id="Layer_x0020_1">
  <metadata id="CorelCorpID_0Corel-Layer"/>
  <polygon class="fil0" points="0.898725,0.0627826 0.113664,0.901902 0.0587484,0.96065 0.113664,1.0194 0.898725,1.85852 1.00861,1.74107 0.278513,0.96065 1.00861,0.180229 "/>
  <path class="fil0" d="M0.898725 0.125515l-0.758586 0.81093 -0.0226925 0.0242054 0.0226925 0.0241549 0.758586 0.81093 0.0511842 -0.0546638 -0.697871 -0.745928 -0.0322738 -0.0344926 0.0322738 -0.0345431 0.697871 -0.745878 -0.0511842 -0.0547142zm-0.811485 0.741894l0.78506 -0.83917 0.0264242 -0.0282396 0.0264242 0.0282396 0.109933 0.117446 0.0323242 0.0345431 -0.0323242 0.0344926 -0.697871 0.745928 0.697871 0.745928 0.0323242 0.0345431 -0.0323242 0.0344926 -0.109933 0.117446 -0.0264242 0.0282396 -0.0264242 -0.0282396 -0.78506 -0.83917 -0.0549663 -0.0587484 -0.0323242 -0.0344926 0.0323242 -0.0345431 0.0549663 -0.058698z"/>
 </g>
</svg>
