<svg xmlns="http://www.w3.org/2000/svg" width="14.524" height="14.555" viewBox="0 0 14.524 14.555"><g transform="translate(-0.539 0)"><g transform="translate(0.539 0)"><path d="M14.683,10.682,12.651,8.651a1.351,1.351,0,0,0-2.249.508,1.382,1.382,0,0,1-1.6.871A6.264,6.264,0,0,1,5.035,6.257a1.315,1.315,0,0,1,.871-1.6,1.351,1.351,0,0,0,.508-2.249L4.382.381a1.449,1.449,0,0,0-1.959,0L1.045,1.759C-.334,3.21,1.19,7.055,4.6,10.464s7.254,5.005,8.705,3.555l1.378-1.378A1.449,1.449,0,0,0,14.683,10.682Z" transform="translate(-0.539 0)" fill="#b98225"/></g></g></svg>